<?xml version="1.0" encoding="UTF-8" standalone="no"?>
<svg
   width="24"
   height="24"
   viewBox="0 0 24 24"
   fill="none"
   stroke="#502100"
   stroke-width="2"
   stroke-linecap="round"
   stroke-linejoin="round"
   class="feather feather-settings"
   version="1.1"
   id="svg1"
   sodipodi:docname="ReSet.svg"
   inkscape:version="1.3.2 (091e20ef0f, 2023-11-25, custom)"
   xmlns:inkscape="http://www.inkscape.org/namespaces/inkscape"
   xmlns:sodipodi="http://sodipodi.sourceforge.net/DTD/sodipodi-0.dtd"
   xmlns="http://www.w3.org/2000/svg"
   xmlns:svg="http://www.w3.org/2000/svg">
  <defs
     id="defs1" />
  <sodipodi:namedview
     id="namedview1"
     pagecolor="#ffffff"
     bordercolor="#000000"
     borderopacity="0.25"
     inkscape:showpageshadow="2"
     inkscape:pageopacity="0.0"
     inkscape:pagecheckerboard="0"
     inkscape:deskcolor="#d1d1d1"
     inkscape:zoom="45.254834"
     inkscape:cx="-2.3975339"
     inkscape:cy="7.9107571"
     inkscape:window-width="3440"
     inkscape:window-height="1440"
     inkscape:window-x="0"
     inkscape:window-y="0"
     inkscape:window-maximized="1"
     inkscape:current-layer="svg1" />
  <ellipse
     cx="-12"
     cy="-12.000001"
     id="circle1"
     transform="scale(-1)"
     rx="2.25"
     ry="2.2500007"
     style="stroke-width:1.3;stroke-dasharray:none" />
  <path
     d="m 16.933331,14.000005 a 1.1000004,1.1000012 0 0 0 0.220001,1.213335 l 0.04,0.04 a 1.3333338,1.3333349 0 0 1 0,1.886671 1.3333338,1.3333349 0 0 1 -1.886668,0 l -0.04,-0.04 a 1.1000004,1.1000012 0 0 0 -1.213335,-0.219999 1.1000004,1.1000012 0 0 0 -0.666667,1.006667 v 0.113333 a 1.3333338,1.3333349 0 0 1 -1.333332,1.333326 1.3333338,1.3333349 0 0 1 -1.333334,-1.333336 v -0.06 a 1.1000004,1.1000012 0 0 0 -0.7200005,-1.006666 1.1000004,1.1000012 0 0 0 -1.213334,0.22 l -0.04,0.04 a 1.3333338,1.3333349 0 0 1 -1.8866673,0 1.3333338,1.3333349 0 0 1 0,-1.88667 l 0.04,-0.04001 A 1.1000004,1.1000012 0 0 0 7.1199943,14.053327 1.1000004,1.1000012 0 0 0 6.1133272,13.38666 H 5.9999939 A 1.3333338,1.3333349 0 0 1 4.66666,12.053336 1.3333338,1.3333349 0 0 1 5.9999939,10.720002 h 0.06 a 1.1000004,1.1000012 0 0 0 1.0066674,-0.7200024 1.1000004,1.1000012 0 0 0 -0.22,-1.2133349 l -0.04,-0.04 a 1.3333338,1.3333349 0 0 1 0,-1.8866689 1.3333338,1.3333349 0 0 1 1.8866674,0 l 0.04,0.040001 a 1.1000004,1.1000012 0 0 0 1.2133328,0.2199993 h 0.05333 A 1.1000004,1.1000012 0 0 0 10.666663,6.1133283 V 5.9999948 A 1.3333338,1.3333349 0 0 1 11.999996,4.66666 1.3333338,1.3333349 0 0 1 13.33333,5.9999948 v 0.06 a 1.1000004,1.1000012 0 0 0 0.666668,1.0066678 1.1000004,1.1000012 0 0 0 1.213333,-0.2200002 l 0.04,-0.04 a 1.3333338,1.3333349 0 0 1 1.886668,0 1.3333338,1.3333349 0 0 1 0,1.8866688 l -0.04,0.04 a 1.1000004,1.1000012 0 0 0 -0.220003,1.2133354 v 0.05333 a 1.1000004,1.1000012 0 0 0 1.006669,0.6666684 h 0.113334 A 1.3333338,1.3333349 0 0 1 19.333333,12 1.3333338,1.3333349 0 0 1 17.999999,13.333335 h -0.06 a 1.1000004,1.1000012 0 0 0 -1.006673,0.666667 z"
     id="path1"
     style="stroke-width:1.3;stroke-dasharray:none" />
  <ellipse
     style="fill:none;fill-opacity:1;stroke-width:1.3;stroke-dasharray:none"
     id="path2"
     cx="12.113708"
     cy="12.113707"
     rx="10.863708"
     ry="10.863707" />
  <rect
     style="fill:none;fill-opacity:1;stroke-width:1.23083;stroke-dasharray:none"
     id="rect2"
     width="4.2691722"
     height="0.06917306"
     x="4.0028996"
     y="4.8591166" />
  <rect
     style="fill:none;fill-opacity:1;stroke-width:1.23083;stroke-dasharray:none"
     id="rect2-5"
     width="0.069173172"
     height="4.2691717"
     x="3.849386"
     y="0.64830494" />
  <path
     style="fill:#f74b00;fill-opacity:1;stroke-width:0.0287262"
     d="m 11.669758,19.930586 c -0.217127,-0.04711 -0.352352,-0.09549 -0.528938,-0.189237 -0.452366,-0.240171 -0.788105,-0.634174 -0.958174,-1.124454 -0.04829,-0.139204 -0.106052,-0.491055 -0.106244,-0.647149 -2.47e-4,-0.200053 -0.090591,-0.339771 -0.276344,-0.427368 -0.1196164,-0.05641 -0.3146488,-0.07043 -0.4203924,-0.03023 -0.032267,0.01227 -0.1312618,0.08562 -0.219988,0.163 -0.2889766,0.252031 -0.4951787,0.370028 -0.8225221,0.470681 -0.1762474,0.05419 -0.2263274,0.05971 -0.5368838,0.05919 C 7.492817,18.204501 7.4378505,18.198419 7.2631474,18.145179 6.5857594,17.938913 6.0937212,17.435366 5.894886,16.744912 5.852935,16.599237 5.845558,16.521911 5.846844,16.241353 5.848194,15.947772 5.855124,15.887685 5.90749,15.715518 6.006609,15.389659 6.1249064,15.18265 6.377528,14.892995 6.5386993,14.708204 6.5659638,14.650367 6.5659799,14.493232 6.5659938,14.357824 6.5250822,14.25267 6.4393293,14.167705 6.3267829,14.056193 6.2619081,14.036335 5.9551649,14.019507 5.7971707,14.01084 5.6067494,13.987639 5.5320065,13.967949 4.8132688,13.778609 4.2728853,13.236851 4.0857357,12.518 4.011827,12.234113 4.0158849,11.852205 4.0959418,11.557473 4.1921374,11.203325 4.4003012,10.853475 4.6580931,10.612695 4.9904402,10.30228 5.5077173,10.08732 5.9223512,10.08732 6.215681,10.08732 6.3909937,9.9848873 6.4730585,9.7655497 6.5620254,9.5277642 6.5288448,9.3979101 6.3162426,9.1518407 5.9514313,8.7296022 5.7864577,8.3131243 5.7862226,7.8137991 5.7859784,7.294938 5.9689611,6.8268099 6.3156857,6.4592635 6.845948,5.8971575 7.6258605,5.6972601 8.3636292,5.9343602 8.6135941,6.0146926 8.8424706,6.1487016 9.0763055,6.3516377 9.3467929,6.586383 9.4572421,6.6172252 9.7126806,6.5293414 9.9595455,6.4444075 10.012051,6.3489719 10.034654,5.9441164 c 0.03029,-0.5425847 0.193368,-0.9292951 0.548495,-1.3006677 0.251649,-0.2631612 0.520154,-0.4273746 0.878685,-0.53739 0.175558,-0.05387 0.227544,-0.059645 0.536884,-0.059645 0.309268,0 0.36135,0.00578 0.536701,0.059592 0.629476,0.193165 1.097222,0.6316745 1.318304,1.2359041 0.07187,0.1964315 0.09049,0.2936371 0.110609,0.5775422 0.02052,0.2895872 0.04226,0.3577876 0.148131,0.4646345 0.08709,0.087902 0.196175,0.1298127 0.339032,0.1302612 0.151761,4.767e-4 0.212783,-0.03101 0.419731,-0.2165764 0.689117,-0.6179175 1.664781,-0.6892781 2.427501,-0.1775487 0.317841,0.2132483 0.616168,0.5933763 0.745658,0.9501179 0.09467,0.2608196 0.126719,0.4813919 0.112384,0.7735377 -0.01617,0.3295882 -0.0517,0.4654462 -0.2024,0.7739856 -0.0868,0.1777021 -0.163266,0.2944549 -0.284362,0.4341543 -0.205212,0.2367395 -0.235405,0.2941767 -0.235405,0.4478138 0,0.1274257 0.06354,0.3233904 0.128804,0.3972594 0.06184,0.069996 0.205515,0.1229297 0.335234,0.1235147 0.527121,0.0024 1.030042,0.179447 1.377835,0.485119 0.821924,0.722382 0.925499,1.883241 0.244313,2.738224 -0.341447,0.428563 -0.854895,0.685406 -1.445371,0.72302 -0.258423,0.01646 -0.335284,0.03894 -0.436257,0.127598 -0.147081,0.129139 -0.199543,0.34192 -0.127068,0.515378 0.01831,0.04383 0.09957,0.155377 0.180579,0.247882 0.188552,0.215322 0.284309,0.366059 0.377051,0.593539 0.105234,0.258117 0.144901,0.462285 0.144901,0.745799 0,0.404391 -0.104357,0.749973 -0.326858,1.0824 -0.37421,0.559086 -0.961559,0.877874 -1.624309,0.881603 -0.520789,0.0029 -0.919964,-0.151696 -1.355266,-0.524984 -0.241061,-0.206718 -0.351563,-0.244648 -0.551212,-0.189205 -0.04591,0.01275 -0.118585,0.05401 -0.161506,0.0917 -0.127089,0.111586 -0.155914,0.194493 -0.171287,0.492672 -0.01577,0.30593 -0.06866,0.536068 -0.177139,0.770862 -0.279055,0.603978 -0.785328,1.005757 -1.424903,1.130805 -0.201293,0.03936 -0.565192,0.03818 -0.752385,-0.0024 z m 0.673723,-1.300428 c 0.141108,-0.0657 0.25699,-0.180225 0.331847,-0.327949 0.04977,-0.09821 0.06046,-0.156234 0.07622,-0.413582 0.0221,-0.360872 0.05645,-0.502387 0.1853,-0.763385 0.228632,-0.463118 0.612117,-0.776029 1.127948,-0.920367 0.262675,-0.0735 0.634257,-0.06823 0.90598,0.01285 0.244534,0.07297 0.439576,0.177452 0.636269,0.340856 0.295917,0.245836 0.329532,0.268451 0.451892,0.304022 0.32978,0.09587 0.687057,-0.07044 0.830319,-0.386516 0.03463,-0.0764 0.0463,-0.146698 0.0463,-0.278918 0,-0.224138 -0.04453,-0.327286 -0.229305,-0.53118 -0.176466,-0.194723 -0.253278,-0.307496 -0.342961,-0.503524 -0.193063,-0.421994 -0.211629,-0.872705 -0.05377,-1.305259 0.160153,-0.438829 0.452666,-0.769513 0.86386,-0.976587 0.214642,-0.108092 0.435665,-0.163129 0.736805,-0.183473 0.394256,-0.02663 0.580897,-0.130665 0.711476,-0.396566 0.05177,-0.105418 0.06137,-0.152871 0.06109,-0.301858 -3.85e-4,-0.205567 -0.04596,-0.327749 -0.175934,-0.47161 -0.140889,-0.155948 -0.273743,-0.204564 -0.613467,-0.22449 -0.161165,-0.0095 -0.357085,-0.03397 -0.435379,-0.05447 -0.316991,-0.08303 -0.589884,-0.246714 -0.822632,-0.49344 -0.197391,-0.209245 -0.319562,-0.421579 -0.400535,-0.696131 -0.05972,-0.2024719 -0.06669,-0.2579272 -0.06863,-0.5457791 -0.0019,-0.2779944 0.0047,-0.3423457 0.04961,-0.4861359 0.08016,-0.2566004 0.20671,-0.4770125 0.411731,-0.7171329 C 16.853595,8.0447532 16.89212,7.951332 16.877732,7.7027864 16.861154,7.4164042 16.706392,7.2015606 16.446681,7.1043902 16.170194,7.0009429 15.921561,7.0639205 15.652305,7.3056025 15.435831,7.4999073 15.235147,7.6209474 14.986892,7.7069371 14.625154,7.8322342 14.143093,7.8147636 13.777534,7.663108 13.577777,7.5802368 13.298511,7.3852963 13.158289,7.2308459 12.874378,6.9181272 12.74219,6.595143 12.697564,6.105126 12.673858,5.8448275 12.65874,5.769702 12.611399,5.6769621 12.54192,5.5408544 12.427911,5.436786 12.26816,5.3636495 c -0.10413,-0.047672 -0.142134,-0.05335 -0.299319,-0.044719 -0.271994,0.014935 -0.454075,0.1255813 -0.576346,0.3502325 -0.05458,0.1002902 -0.06489,0.1500203 -0.08158,0.3937447 -0.03007,0.4389468 -0.08711,0.6466332 -0.2584,0.940767 -0.148339,0.254728 -0.511079,0.5791455 -0.765505,0.684631 -0.04817,0.01997 -0.187378,0.062841 -0.309359,0.095268 C 9.7007104,7.8571942 9.337566,7.8650206 9.0929513,7.8026398 8.8494917,7.7405536 8.5626393,7.589983 8.3747959,7.4256757 8.1408565,7.2210478 8.0336717,7.1541213 7.8931873,7.1249566 7.7290472,7.0908814 7.574325,7.1145933 7.4183478,7.1977283 7.1832976,7.3230088 7.0601868,7.5358277 7.0633986,7.8113202 c 0.00248,0.2129921 0.053908,0.3314123 0.2228712,0.5132256 0.3495578,0.3761424 0.5001216,0.7425351 0.501915,1.2213957 0.00108,0.2875028 -0.021822,0.4106063 -0.1253665,0.6739615 -0.1647431,0.419009 -0.4607453,0.750256 -0.8433424,0.94376 -0.2340932,0.118395 -0.3889929,0.159127 -0.7348647,0.193234 -0.3443871,0.03396 -0.4261504,0.0627 -0.5661921,0.199009 -0.1417027,0.137926 -0.2014797,0.281424 -0.2028723,0.487006 -0.00142,0.209222 0.06082,0.367152 0.1979624,0.502344 0.1420231,0.140003 0.2487001,0.177604 0.5622426,0.198177 0.3456778,0.02268 0.5785959,0.07905 0.8128208,0.196698 0.5664016,0.284503 0.9232923,0.840979 0.9503288,1.481784 0.02103,0.498444 -0.1350073,0.912257 -0.4893058,1.297645 -0.1912956,0.208082 -0.2231629,0.284172 -0.2231629,0.532847 0,0.175457 0.00818,0.225241 0.049793,0.303221 0.074183,0.138998 0.1653234,0.232916 0.2965927,0.305634 0.1070119,0.05928 0.1363191,0.0651 0.3274534,0.06505 0.2496789,-7.3e-5 0.3323855,-0.0349 0.5413786,-0.227951 0.3552429,-0.328149 0.7558322,-0.489491 1.2153398,-0.489491 0.2465639,0 0.4139692,0.033 0.6717498,0.132408 0.523856,0.202021 0.935276,0.65772 1.072734,1.188188 0.01945,0.07507 0.04427,0.253721 0.05514,0.396994 0.01088,0.143272 0.03258,0.29009 0.04824,0.326262 0.08266,0.190957 0.230165,0.334171 0.410409,0.398462 0.141087,0.05033 0.396848,0.04015 0.528213,-0.02102 z"
     id="path30" />
  <path
     style="fill:#f74b00;fill-opacity:1;stroke-width:0.0143631"
     d="M 11.821941,14.887763 C 11.287468,14.852959 10.772756,14.672336 10.335912,14.366284 10.140775,14.229571 9.9037472,14.007062 9.7452878,13.811839 9.5687988,13.594403 9.382881,13.267758 9.286445,13.005682 9.1198465,12.552932 9.0678713,12.057949 9.1372042,11.584398 9.3152375,10.368411 10.239965,9.3977456 11.446291,9.1606015 c 0.480688,-0.094496 1.004413,-0.060288 1.471997,0.096144 0.430667,0.1440816 0.789249,0.3674787 1.119548,0.6974802 0.253931,0.2537023 0.404366,0.4623653 0.557947,0.7739103 0.266225,0.540049 0.356897,1.155996 0.257787,1.751194 -0.0243,0.145918 -0.08392,0.374792 -0.131377,0.504292 -0.05159,0.140793 -0.196465,0.43517 -0.276049,0.56092 -0.26361,0.416532 -0.654272,0.779108 -1.088455,1.010204 -0.464598,0.247285 -1.01603,0.366859 -1.535748,0.333017 z m 0.469564,-1.308912 c 0.130796,-0.02338 0.298922,-0.08032 0.426962,-0.144607 0.44164,-0.221738 0.746558,-0.617539 0.85481,-1.109594 0.02762,-0.125543 0.03448,-0.432507 0.01272,-0.569604 -0.08226,-0.518435 -0.402555,-0.95873 -0.8636,-1.187156 -0.325064,-0.161053 -0.635122,-0.206766 -0.999893,-0.147415 -0.307498,0.05003 -0.601337,0.199381 -0.83263,0.423201 -0.239827,0.232079 -0.387423,0.497382 -0.461993,0.83043 -0.02223,0.09928 -0.02561,0.143636 -0.02513,0.330136 4.51e-4,0.177562 0.0047,0.233929 0.02394,0.320553 0.110684,0.497204 0.416638,0.892239 0.864077,1.115659 0.155873,0.07783 0.357542,0.134739 0.564314,0.159239 0.07668,0.0091 0.339092,-0.0034 0.436418,-0.02084 z"
     id="path36" />
  <path
     style="mix-blend-mode:darken;fill:#f74b00;fill-opacity:1;stroke-width:0.040625"
     d="M 11.171875,23.576419 C 8.8259056,23.360313 6.7295522,22.519651 4.90625,21.06383 4.4457037,20.696105 3.6503937,19.914279 3.2720671,19.457353 1.759065,17.630018 0.84199229,15.380124 0.65413327,13.034663 0.60758517,12.453499 0.63206867,11.234851 0.70084655,10.709544 0.97431515,8.6208619 1.7707068,6.6873516 3.0111567,5.1004837 L 3.25,4.7949391 3.2506863,2.6630946 C 3.2513304,0.66237878 3.2548963,0.52348178 3.3087393,0.40495719 3.4213856,0.15696689 3.665131,0.02614655 3.9581873,0.05639262 4.1748079,0.07874985 4.3229957,0.17231863 4.4299639,0.35428212 L 4.515625,0.5 4.53125,1.9759711 4.546875,3.4519422 4.859375,3.1984219 c 3.7141684,-3.01317312 8.857611,-3.42464189 13.003131,-1.0402337 1.379784,0.7936203 2.68094,1.9844721 3.655506,3.3456165 0.820832,1.1464269 1.480064,2.6301328 1.808349,4.069975 0.426566,1.8708983 0.365461,3.9032213 -0.172696,5.7437633 -0.196281,0.671298 -0.412687,1.223277 -0.733123,1.869957 -0.608971,1.228977 -1.300369,2.180279 -2.283775,3.142268 -1.807555,1.768192 -4.031317,2.849218 -6.558642,3.188319 -0.541545,0.07266 -1.894619,0.105462 -2.40625,0.05833 z m 2.407234,-1.336122 c 2.804036,-0.437526 5.170693,-1.870232 6.822287,-4.130018 2.48363,-3.398216 2.585417,-8.1207037 0.250578,-11.6257521 C 19.93111,5.4023697 19.047377,4.4897647 18,3.7459128 16.071316,2.3761527 13.631006,1.7187402 11.234375,1.923273 9.1976181,2.0970936 7.2664881,2.8776787 5.6529719,4.1793409 l -0.1060969,0.085591 1.4309325,3.465e-4 c 1.3446909,3.257e-4 1.4379203,0.00393 1.546875,0.059805 0.2218944,0.1137941 0.3509,0.3249775 0.3496312,0.57235 C 8.8730722,5.1394947 8.6999362,5.4031253 8.4901531,5.4823869 8.4312425,5.504645 7.7218375,5.515625 6.3427016,5.515625 H 4.2832219 L 4.0593603,5.8046875 c -1.2042156,1.55495 -1.8942265,3.2669903 -2.1253757,5.2734375 -0.055814,0.484484 -0.046928,1.676142 0.016428,2.203125 0.5712529,4.75155 4.2552284,8.439652 8.9870874,8.997153 0.585737,0.06901 2.09461,0.04725 2.641609,-0.03811 z"
     id="path37" />
  <path
     style="fill:#f74b00;fill-opacity:1;stroke-width:0.0203125"
     d="M 11.492187,23.606819 C 10.906953,23.587714 10.032519,23.454083 9.3125,23.273717 7.5704512,22.837331 5.9462139,21.991109 4.578125,20.807123 4.3152603,20.579631 3.6875278,19.956214 3.4586206,19.695312 1.9426597,17.967469 0.9626692,15.77302 0.68844796,13.492187 0.62885977,12.996563 0.61825139,12.79105 0.61827827,12.132812 c 2.914e-5,-0.713504 0.0232117,-1.10581 0.0941794,-1.59375 C 1.0145029,8.4623455 1.793055,6.6346144 3.0732105,4.9969525 L 3.234375,4.7907798 3.2346892,2.7313275 C 3.2348697,1.5482222 3.2411777,0.62915808 3.2495133,0.57148845 3.2804869,0.35720022 3.43172,0.1587793 3.6211459,0.08389904 3.7525275,0.03196381 4.014765,0.03267786 4.1484375,0.08533482 4.2644737,0.1310444 4.4082742,0.27038664 4.4796203,0.40625 L 4.5288514,0.5 l 0.01109,1.1875 c 0.0061,0.653125 0.015428,1.3095058 0.02073,1.4586239 l 0.00964,0.2711238 0.1953125,-0.1604671 C 7.2635797,1.2044816 10.424152,0.29096461 13.601561,0.70288264 16.604022,1.0921204 19.319541,2.6491598 21.204851,5.0625 c 0.912904,1.168587 1.61126,2.5663051 2.011204,4.0253039 0.521008,1.9006421 0.537724,3.9660511 0.04753,5.8731331 -0.584928,2.275654 -1.856785,4.3298 -3.623342,5.851977 -1.403972,1.20975 -3.001314,2.037052 -4.779197,2.475261 -1.068813,0.263439 -2.092847,0.360297 -3.368861,0.318644 z m 1.625,-1.33313 c 0.886255,-0.0654 1.981072,-0.341605 2.953125,-0.745014 2.464157,-1.022642 4.481638,-3.051908 5.487835,-5.519889 0.40518,-0.993817 0.638362,-1.974432 0.73293,-3.082224 0.03097,-0.362816 0.03508,-1.207417 0.0075,-1.54375 C 22.127641,9.2973795 21.439742,7.48568 20.215325,5.8961809 19.620706,5.1242644 18.873086,4.3957398 18.101562,3.836407 16.508502,2.6814825 14.635739,2.0241855 12.625,1.9142586 10.366807,1.7908034 8.0951458,2.4491525 6.21875,3.7708508 5.9724644,3.9443298 5.6059384,4.2283342 5.6157177,4.2381134 c 0.00372,0.00372 0.6385481,0.011431 1.410731,0.017137 l 1.4039691,0.010375 0.102838,0.050645 c 0.2493547,0.1228006 0.3894281,0.40015 0.3432654,0.6796755 -0.044807,0.2713147 -0.2288545,0.4716756 -0.482759,0.5255486 -0.058858,0.012488 -0.6646535,0.017568 -2.0950074,0.017568 h -2.012207 l -0.13312,0.1679687 C 3.349327,6.7216326 2.7916394,7.7550867 2.4017231,8.953125 c -0.2211608,0.679528 -0.4044058,1.5607 -0.463027,2.226562 -0.041667,0.473283 -0.033917,1.514596 0.01489,2.000723 0.051066,0.508627 0.1677911,1.11564 0.3199158,1.663674 0.9733633,3.506574 3.7217164,6.222232 7.2343111,7.14825 0.576549,0.151994 1.221629,0.263888 1.710938,0.296774 0.258847,0.0174 1.601545,0.0065 1.898437,-0.01542 z"
     id="path38" />
</svg>
